<svg viewBox="0 0 16 16" width="16px" height="16px"><path fill="#828282" d="M11.074 11.949c1.121 0 2.051-0.902 2.051-2.023s-0.93-2.051-2.051-2.051-2.023 0.93-2.023 2.051 0.902 2.023 2.023 2.023zM11.074 7c1.641 0 2.926 1.285 2.926 2.926s-1.285 2.898-2.926 2.898-2.898-1.258-2.898-2.898 1.258-2.926 2.898-2.926zM6.289 6.125l1.285 1.34v3.609h-1.148v-2.898l-1.887-1.641c-0.246-0.164-0.328-0.465-0.328-0.82 0-0.301 0.082-0.574 0.328-0.82l1.641-1.641c0.164-0.246 0.465-0.328 0.82-0.328s0.629 0.082 0.93 0.328l1.121 1.121c0.52 0.52 1.203 0.875 2.078 0.875v1.176c-1.23 0-2.188-0.465-2.953-1.23l-0.465-0.465zM2.926 11.949c1.121 0 2.023-0.902 2.023-2.023s-0.902-2.051-2.023-2.051-2.051 0.93-2.051 2.051 0.93 2.023 2.051 2.023zM2.926 7c1.641 0 2.898 1.285 2.898 2.926s-1.258 2.898-2.898 2.898-2.926-1.258-2.926-2.898 1.285-2.926 2.926-2.926zM9.051 3.199c-0.629 0-1.176-0.52-1.176-1.148s0.547-1.176 1.176-1.176 1.148 0.547 1.148 1.176-0.52 1.148-1.148 1.148z"/></svg>
