<svg viewBox="0 0 16 16" width="16px" height="16px">
  <path fill="#828282" d="M5.25 10.063c0-2.068 1.311-3.835 3.145-4.514 0.223-0.5 0.355-1.055 0.355-1.611 0-2.175 0-3.938-2.625-3.938s-2.625 1.763-2.625 3.938c0 1.354 0.786 2.708 1.75 3.252v0.722c-2.968 0.243-5.25 1.701-5.25 3.464h5.432c-0.118-0.417-0.182-0.858-0.182-1.313z"/>
  <path fill="#828282" d="M10.063 6.125c-2.175 0-3.938 1.763-3.938 3.938s1.763 3.938 3.938 3.938c2.175 0 3.938-1.763 3.938-3.938s-1.763-3.938-3.938-3.938zM12.25 10.5h-1.75v1.75h-0.875v-1.75h-1.75v-0.875h1.75v-1.75h0.875v1.75h1.75v0.875z"/>
</svg>
